<svg width="30" height="30" viewBox="0 0 30 30" fill="none" xmlns="http://www.w3.org/2000/svg">
<path fill-rule="evenodd" clip-rule="evenodd" d="M8.53015 14.4312H9.25769C9.51485 14.4312 9.72644 14.3872 9.89246 14.2993C10.0617 14.2082 10.1871 14.0845 10.2684 13.9282C10.3531 13.7687 10.3954 13.5848 10.3954 13.3765C10.3954 13.1714 10.358 12.994 10.2831 12.8442C10.2082 12.6912 10.0943 12.5741 9.94128 12.4927C9.79154 12.408 9.59949 12.3657 9.36511 12.3657C9.17631 12.3657 9.00216 12.4032 8.84265 12.478C8.6864 12.5529 8.56108 12.6603 8.46667 12.8003C8.37553 12.937 8.32996 13.1014 8.32996 13.2935H7.03601C7.03601 12.9093 7.13692 12.5724 7.33875 12.2827C7.54382 11.9897 7.82052 11.7603 8.16882 11.5942C8.51713 11.4282 8.90613 11.3452 9.33582 11.3452C9.80457 11.3452 10.2147 11.4233 10.5663 11.5796C10.9211 11.7326 11.1962 11.9588 11.3915 12.2583C11.59 12.5578 11.6893 12.9289 11.6893 13.3716C11.6893 13.5832 11.6389 13.7948 11.538 14.0063C11.4403 14.2147 11.2955 14.4035 11.1034 14.5728C10.9558 14.7025 10.7813 14.8134 10.58 14.9054C10.8417 14.9948 11.0601 15.1167 11.2352 15.271C11.4273 15.437 11.5689 15.6307 11.66 15.8521C11.7544 16.0734 11.8016 16.311 11.8016 16.5649C11.8016 16.897 11.7398 17.1932 11.6161 17.4536C11.4924 17.7108 11.3182 17.9289 11.0936 18.1079C10.8723 18.2869 10.6119 18.4237 10.3124 18.5181C10.0129 18.6092 9.68901 18.6548 9.3407 18.6548C9.03796 18.6548 8.74337 18.6141 8.45691 18.5327C8.17371 18.4481 7.91817 18.3228 7.69031 18.1567C7.46244 17.9875 7.28178 17.7759 7.14832 17.522C7.01485 17.2648 6.94812 16.967 6.94812 16.6284H8.24207C8.24207 16.8237 8.28927 16.9979 8.38367 17.1509C8.48132 17.3039 8.61479 17.4243 8.78406 17.5122C8.95658 17.5968 9.15027 17.6392 9.36511 17.6392C9.60274 17.6392 9.80619 17.5968 9.97546 17.5122C10.148 17.4243 10.2798 17.3006 10.371 17.1411C10.4621 16.9784 10.5077 16.7847 10.5077 16.5601C10.5077 16.2931 10.4572 16.0767 10.3563 15.9106C10.2554 15.7446 10.1106 15.6226 9.92175 15.5444C9.73621 15.4663 9.51485 15.4272 9.25769 15.4272H8.53015V14.4312Z" fill="white"/>
<path fill-rule="evenodd" clip-rule="evenodd" d="M23.0518 15.5884V14.3921C23.0518 13.9559 23.0144 13.5718 22.9395 13.2397C22.8679 12.9045 22.7637 12.618 22.627 12.3804C22.4903 12.1395 22.3243 11.9442 22.129 11.7944C21.9369 11.6414 21.7188 11.5291 21.4747 11.4575C21.2338 11.3859 20.9701 11.3501 20.6837 11.3501C20.3288 11.3501 20.0066 11.4071 19.7169 11.521C19.4271 11.6317 19.1781 11.8091 18.9698 12.0532C18.7615 12.2974 18.6003 12.6115 18.4864 12.9956C18.3757 13.3797 18.3204 13.8452 18.3204 14.3921V15.5884C18.3204 16.0246 18.3562 16.4103 18.4278 16.7456C18.5027 17.0809 18.6085 17.369 18.7452 17.6099C18.8852 17.8507 19.0512 18.0493 19.2432 18.2056C19.4385 18.3586 19.6583 18.4725 19.9024 18.5474C20.1465 18.619 20.4102 18.6548 20.6934 18.6548C21.0482 18.6548 21.3705 18.5978 21.6602 18.4839C21.9499 18.3667 22.199 18.186 22.4073 17.9419C22.6156 17.6945 22.7751 17.3771 22.8858 16.9897C22.9965 16.6024 23.0518 16.1353 23.0518 15.5884ZM21.7628 14.2114V15.7642C21.7628 16.1027 21.7383 16.3924 21.6895 16.6333C21.6439 16.8709 21.5756 17.0646 21.4844 17.2144C21.3933 17.3608 21.281 17.4683 21.1475 17.5366C21.0173 17.605 20.8659 17.6392 20.6934 17.6392C20.5567 17.6392 20.4314 17.618 20.3174 17.5757C20.2035 17.5301 20.1026 17.4618 20.0147 17.3706C19.9301 17.2762 19.8568 17.1558 19.795 17.0093C19.7364 16.8628 19.6908 16.687 19.6583 16.4819C19.629 16.2769 19.6143 16.0376 19.6143 15.7642V14.2114C19.6143 13.8729 19.6371 13.5864 19.6827 13.3521C19.7315 13.1144 19.8015 12.924 19.8926 12.7808C19.9838 12.6375 20.0961 12.5334 20.2296 12.4683C20.363 12.3999 20.5144 12.3657 20.6837 12.3657C20.8204 12.3657 20.9457 12.3869 21.0596 12.4292C21.1736 12.4715 21.2745 12.5382 21.3624 12.6294C21.4503 12.7173 21.5235 12.8328 21.5821 12.9761C21.6407 13.1193 21.6846 13.2935 21.7139 13.4985C21.7465 13.7004 21.7628 13.938 21.7628 14.2114Z" fill="white"/>
<path fill-rule="evenodd" clip-rule="evenodd" d="M16.4966 11.3892H16.3208C15.7349 11.3892 15.2189 11.4901 14.7729 11.6919C14.327 11.8905 13.9526 12.1704 13.6499 12.5317C13.3504 12.8898 13.1242 13.3081 12.9712 13.7866C12.8182 14.2651 12.7417 14.7827 12.7417 15.3394V15.8569C12.7417 16.2508 12.7987 16.617 12.9126 16.9556C13.0265 17.2941 13.1909 17.5903 13.4058 17.8442C13.6206 18.0981 13.8778 18.2967 14.1772 18.4399C14.48 18.5832 14.8218 18.6548 15.2026 18.6548C15.564 18.6548 15.8895 18.5929 16.1792 18.4692C16.4689 18.3455 16.7163 18.173 16.9214 17.9517C17.1265 17.7303 17.2827 17.4715 17.3901 17.1753C17.5008 16.8791 17.5562 16.5601 17.5562 16.2183C17.5562 15.8993 17.5138 15.5965 17.4292 15.3101C17.3446 15.0203 17.2176 14.7648 17.0483 14.5435C16.8823 14.3221 16.6724 14.1479 16.4185 14.021C16.1646 13.8908 15.8683 13.8257 15.5298 13.8257C15.2368 13.8257 14.9699 13.8729 14.729 13.9673C14.4914 14.0617 14.2847 14.1951 14.1089 14.3677C14.0934 14.3832 14.0782 14.3989 14.0633 14.4148C14.088 14.2289 14.1292 14.052 14.187 13.8843C14.2879 13.5881 14.436 13.3325 14.6313 13.1177C14.8299 12.8996 15.0773 12.7303 15.3735 12.6099C15.673 12.4894 16.0197 12.4292 16.4136 12.4292H16.4966V11.3892ZM14.0356 15.9985V15.5838C14.0598 15.5257 14.0891 15.4686 14.1235 15.4126C14.2277 15.2433 14.3693 15.1066 14.5483 15.0024C14.7274 14.895 14.9308 14.8413 15.1587 14.8413C15.3345 14.8413 15.4907 14.8771 15.6274 14.9487C15.7674 15.0171 15.8846 15.1164 15.979 15.2466C16.0734 15.3735 16.145 15.5216 16.1938 15.6909C16.2427 15.8602 16.2671 16.0441 16.2671 16.2427C16.2671 16.4445 16.241 16.63 16.189 16.7993C16.1401 16.9686 16.0669 17.1167 15.9692 17.2437C15.8748 17.3673 15.7609 17.4634 15.6274 17.5317C15.494 17.6001 15.3442 17.6343 15.1782 17.6343C15.0122 17.6343 14.8592 17.6001 14.7192 17.5317C14.5825 17.4634 14.4621 17.3608 14.3579 17.2241C14.257 17.0841 14.1772 16.9132 14.1187 16.7114C14.0633 16.5063 14.0356 16.2687 14.0356 15.9985Z" fill="white"/>
<path fill-rule="evenodd" clip-rule="evenodd" d="M27 5H3C1.89543 5 1 5.89543 1 7V23C1 24.1046 1.89543 25 3 25H27C28.1046 25 29 24.1046 29 23V7C29 5.89543 28.1046 5 27 5ZM27 23H3V7H27V23Z" fill="white"/>
</svg>
