<svg width="78" height="78" viewBox="0 0 78 78" fill="none" xmlns="http://www.w3.org/2000/svg">
<path d="M14.462 13.6878C14.3864 13.2292 14.3485 12.765 14.3486 12.2999C14.3486 7.71601 17.9958 4 22.4948 4C26.9938 4 30.641 7.71601 30.641 12.2999C30.6412 12.7649 30.6033 13.2292 30.5276 13.6878C34.6584 13.7108 38 17.1297 38 21.3438C38 25.5722 34.6357 29 30.4856 29C28.3897 29 26.4942 28.1257 25.1312 26.7155L25.1313 26.7154C24.4151 25.9727 24.4191 24.779 25.1431 24.0412C25.8712 23.2994 27.0517 23.2994 27.7798 24.0412C27.8029 24.0648 27.8254 24.0889 27.847 24.1134C28.5294 24.7897 29.4611 25.2062 30.4882 25.2062C32.5804 25.2062 34.2765 23.4781 34.2765 21.3464C34.2765 19.2148 32.5804 17.4867 30.4882 17.4867C29.5282 17.4867 28.6516 17.8506 27.9839 18.4503L27.9807 18.447L27.9177 18.5112C27.8442 18.5804 27.7734 18.6525 27.7055 18.7274L27.5617 18.874L27.5642 18.8766L19.8851 26.7006L19.8841 26.6995C18.5201 28.1191 16.6182 29 14.5144 29C10.3643 29 7 25.5722 7 21.3438C7 17.1332 10.336 13.7165 14.462 13.6878V13.6878ZM14.517 25.2062C16.6091 25.2062 18.3052 23.4781 18.3052 21.3464C18.3052 19.2148 16.6092 17.4867 14.517 17.4867C12.4248 17.4867 10.7287 19.2148 10.7287 21.3464C10.7287 23.4781 12.4248 25.2062 14.517 25.2062ZM22.4948 16.8008C24.9345 16.8008 26.9123 14.7857 26.9123 12.2999C26.9123 9.8142 24.9345 7.79909 22.4948 7.79909C20.0551 7.79909 18.0773 9.8142 18.0773 12.3C18.0773 14.7857 20.0551 16.8008 22.4948 16.8008Z" fill="white"/>
<path d="M69.941 18.375C69.6439 18.2973 69.4548 18.0126 69.5224 17.7278C70.8594 11.8648 67.132 5.95004 61.0007 4.38399C54.6938 2.7791 48.1843 6.35126 46.4692 12.3696V12.3955C45.4293 16.1229 46.1316 20.0316 48.4409 23.2673C50.048 25.5193 52.3709 27.2406 55.0449 28.1855C62.5267 30.7999 70.5893 26.8782 72.9662 19.8892C73.0877 19.5268 72.8716 19.1386 72.48 19.035L69.941 18.375ZM57.5028 24.0568C55.207 23.4743 53.2893 22.0636 52.1008 20.0963C50.9124 18.129 50.6017 15.8511 51.2095 13.6509C52.2224 10.0658 56.0983 7.93026 59.8662 8.90096C63.4316 9.81988 65.6329 13.1979 64.9982 16.6018C64.9441 16.9254 65.1332 17.236 65.4708 17.3137L67.8612 17.922C68.1719 17.9996 68.3339 18.3102 68.2394 18.595C66.7268 22.8013 62.0541 25.2216 57.5028 24.0568Z" fill="white"/>
<path fill-rule="evenodd" clip-rule="evenodd" d="M26 35V46H29.9448C31.1256 46 32.1275 45.7726 32.9504 45.3177C33.7734 44.8536 34.3906 44.2084 34.8021 43.3823C35.2225 42.5468 35.4327 41.5861 35.4327 40.5C35.4327 39.4139 35.2314 38.4578 34.8289 37.6316C34.4353 36.7962 33.8449 36.1511 33.0578 35.6962C32.2706 35.2321 31.309 35 30.1729 35H26ZM32.1588 42.7557C31.6757 43.3034 30.9422 43.5772 29.9582 43.5772H28.4957V37.4228H30.0656C31.0138 37.4228 31.7205 37.6966 32.1856 38.2443C32.6508 38.792 32.8833 39.5439 32.8833 40.5C32.8833 41.4561 32.6418 42.208 32.1588 42.7557Z" fill="white"/>
<path fill-rule="evenodd" clip-rule="evenodd" d="M45.947 46H43.3036L42.5388 43.7304H38.8087L38.0439 46H35.4006L39.3991 35H41.9485L45.947 46ZM40.6335 38.3696L39.6406 41.3076H41.7069L40.714 38.3696H40.6335Z" fill="white"/>
<path fill-rule="evenodd" clip-rule="evenodd" d="M48.4119 46L44.3731 35H47.0567L49.6463 42.4772H49.7268L52.3164 35H55L50.9612 46H48.4119Z" fill="white"/>
<path d="M11.2771 73.5941C12.7577 74.5314 14.5272 75 16.5856 75C18.2467 75 19.7183 74.7095 21.0002 74.1284C22.3003 73.566 23.3114 72.76 24.0336 71.7103C24.7559 70.6606 25.117 69.4421 25.117 68.055C25.117 66.5554 24.7468 65.3557 24.0065 64.456C23.2663 63.5562 22.4086 62.9002 21.4336 62.4878C20.4586 62.0566 19.2578 61.6536 17.8314 61.2787C16.73 60.9788 15.8995 60.707 15.3397 60.4633C14.78 60.2196 14.3828 59.976 14.148 59.7323C13.9314 59.4698 13.823 59.1418 13.823 58.7482C13.823 58.1671 14.1119 57.6891 14.6897 57.3142C15.2856 56.9205 16.0078 56.7237 16.8564 56.7237C17.7592 56.7237 18.5898 56.9674 19.3481 57.4548C20.1065 57.9421 20.7204 58.6357 21.1898 59.5355L24.9545 56.9205C24.3225 55.4959 23.3114 54.3244 21.9211 53.4059C20.5488 52.4686 18.8787 52 16.9106 52C15.3939 52 14.0036 52.2905 12.7397 52.8716C11.4938 53.4527 10.5007 54.2681 9.76045 55.3178C9.03821 56.3488 8.6771 57.5204 8.6771 58.8325C8.6771 60.3134 9.04724 61.513 9.78753 62.4315C10.5278 63.3313 11.3765 63.9967 12.3334 64.4279C13.3084 64.8403 14.5272 65.2526 15.9897 65.665C17.0731 65.965 17.8946 66.2461 18.4544 66.5086C19.0321 66.7522 19.4294 67.0147 19.6461 67.2958C19.8627 67.577 19.9711 67.9238 19.9711 68.3362C19.9711 68.936 19.6641 69.414 19.0502 69.7702C18.4544 70.1076 17.6418 70.2763 16.6127 70.2763C14.5001 70.2763 12.9383 69.2078 11.9272 67.0709L8 69.7983C8.70418 71.3916 9.79656 72.6569 11.2771 73.5941Z" fill="white"/>
<path d="M32.4683 74.6063H27.5932V52.3936H32.062L38.9413 63.3875H39.1038L45.9831 52.3936H50.4519V74.6063H45.5769V61.8411H45.4143L40.9184 68.9548H37.1267L32.6308 61.9535H32.4683V74.6063Z" fill="white"/>
<path d="M67.4249 63.1345C68.5444 63.4719 69.4201 64.0623 70.0521 64.9059C70.684 65.7494 71 66.8647 71 68.2518C71 70.22 70.35 71.7759 69.05 72.9193C67.768 74.044 65.9534 74.6063 63.6061 74.6063H53.6393V52.3936H62.8748C65.1499 52.3936 66.9013 52.9185 68.1291 53.9682C69.3569 54.9992 69.9708 56.5081 69.9708 58.4951C69.9708 59.6198 69.7361 60.5664 69.2666 61.3349C68.8152 62.0847 68.2013 62.6283 67.4249 62.9658V63.1345ZM58.6768 57.1173V60.9975H62.2519C63.0644 60.9975 63.6874 60.8288 64.1207 60.4914C64.5721 60.1353 64.7978 59.6198 64.7978 58.945C64.7978 57.7266 63.9582 57.1173 62.279 57.1173H58.6768ZM63.0644 69.8826C63.8769 69.8826 64.545 69.7046 65.0686 69.3484C65.5923 68.9735 65.8541 68.4393 65.8541 67.7457C65.8541 67.0896 65.5923 66.5929 65.0686 66.2555C64.545 65.8993 63.8679 65.7213 63.0373 65.7213H58.6768V69.8826H63.0644Z" fill="white"/>
</svg>
